<?xml version="1.0" encoding="UTF-8" standalone="no"?>
<!DOCTYPE svg PUBLIC "-//W3C//DTD SVG 1.1//EN"
 "http://www.w3.org/Graphics/SVG/1.1/DTD/svg11.dtd">
<!-- Generated by graphviz version 2.43.0 (0)
 -->
<!-- Title: snakemake_dag Pages: 1 -->
<svg width="525pt" height="260pt"
 viewBox="0.00 0.00 524.50 260.00" xmlns="http://www.w3.org/2000/svg" xmlns:xlink="http://www.w3.org/1999/xlink">
<g id="graph0" class="graph" transform="scale(1 1) rotate(0) translate(4 256)">
<title>snakemake_dag</title>
<polygon fill="white" stroke="transparent" points="-4,4 -4,-256 520.5,-256 520.5,4 -4,4"/>
<!-- 0 -->
<g id="node1" class="node">
<title>0</title>
<path fill="none" stroke="#569ad8" stroke-width="2" d="M251.5,-36C251.5,-36 221.5,-36 221.5,-36 215.5,-36 209.5,-30 209.5,-24 209.5,-24 209.5,-12 209.5,-12 209.5,-6 215.5,0 221.5,0 221.5,0 251.5,0 251.5,0 257.5,0 263.5,-6 263.5,-12 263.5,-12 263.5,-24 263.5,-24 263.5,-30 257.5,-36 251.5,-36"/>
<text text-anchor="middle" x="236.5" y="-15.5" font-family="sans" font-size="10.00">all</text>
</g>
<!-- 1 -->
<g id="node2" class="node">
<title>1</title>
<path fill="none" stroke="#56d89a" stroke-width="2" d="M79,-108C79,-108 12,-108 12,-108 6,-108 0,-102 0,-96 0,-96 0,-84 0,-84 0,-78 6,-72 12,-72 12,-72 79,-72 79,-72 85,-72 91,-78 91,-84 91,-84 91,-96 91,-96 91,-102 85,-108 79,-108"/>
<text text-anchor="middle" x="45.5" y="-87.5" font-family="sans" font-size="10.00">model_fit_base</text>
</g>
<!-- 1&#45;&gt;0 -->
<g id="edge1" class="edge">
<title>1&#45;&gt;0</title>
<path fill="none" stroke="grey" stroke-width="2" d="M91.25,-72.23C124.51,-60.04 168.94,-43.76 199.87,-32.42"/>
<polygon fill="grey" stroke="grey" stroke-width="2" points="201.22,-35.66 209.41,-28.93 198.81,-29.08 201.22,-35.66"/>
</g>
<!-- 2 -->
<g id="node3" class="node">
<title>2</title>
<path fill="none" stroke="#59d856" stroke-width="2" d="M203,-180C203,-180 130,-180 130,-180 124,-180 118,-174 118,-168 118,-168 118,-156 118,-156 118,-150 124,-144 130,-144 130,-144 203,-144 203,-144 209,-144 215,-150 215,-156 215,-156 215,-168 215,-168 215,-174 209,-180 203,-180"/>
<text text-anchor="middle" x="166.5" y="-159.5" font-family="sans" font-size="10.00">preprocess_data</text>
</g>
<!-- 2&#45;&gt;1 -->
<g id="edge5" class="edge">
<title>2&#45;&gt;1</title>
<path fill="none" stroke="grey" stroke-width="2" d="M136.9,-143.88C120.93,-134.64 101.04,-123.13 83.89,-113.21"/>
<polygon fill="grey" stroke="grey" stroke-width="2" points="85.62,-110.17 75.21,-108.19 82.12,-116.23 85.62,-110.17"/>
</g>
<!-- 6 -->
<g id="node7" class="node">
<title>6</title>
<path fill="none" stroke="#d89556" stroke-width="2" d="M218,-108C218,-108 121,-108 121,-108 115,-108 109,-102 109,-96 109,-96 109,-84 109,-84 109,-78 115,-72 121,-72 121,-72 218,-72 218,-72 224,-72 230,-78 230,-84 230,-84 230,-96 230,-96 230,-102 224,-108 218,-108"/>
<text text-anchor="middle" x="169.5" y="-87.5" font-family="sans" font-size="10.00">model_fit_large_base</text>
</g>
<!-- 2&#45;&gt;6 -->
<g id="edge9" class="edge">
<title>2&#45;&gt;6</title>
<path fill="none" stroke="grey" stroke-width="2" d="M167.24,-143.7C167.57,-135.98 167.97,-126.71 168.34,-118.11"/>
<polygon fill="grey" stroke="grey" stroke-width="2" points="171.84,-118.25 168.77,-108.1 164.84,-117.95 171.84,-118.25"/>
</g>
<!-- 3 -->
<g id="node4" class="node">
<title>3</title>
<path fill="none" stroke="#97d856" stroke-width="2" d="M256,-252C256,-252 215,-252 215,-252 209,-252 203,-246 203,-240 203,-240 203,-228 203,-228 203,-222 209,-216 215,-216 215,-216 256,-216 256,-216 262,-216 268,-222 268,-228 268,-228 268,-240 268,-240 268,-246 262,-252 256,-252"/>
<text text-anchor="middle" x="235.5" y="-231.5" font-family="sans" font-size="10.00">read_data</text>
</g>
<!-- 3&#45;&gt;2 -->
<g id="edge6" class="edge">
<title>3&#45;&gt;2</title>
<path fill="none" stroke="grey" stroke-width="2" d="M218.44,-215.7C210,-207.14 199.68,-196.66 190.46,-187.3"/>
<polygon fill="grey" stroke="grey" stroke-width="2" points="192.87,-184.77 183.36,-180.1 187.89,-189.68 192.87,-184.77"/>
</g>
<!-- 5 -->
<g id="node6" class="node">
<title>5</title>
<path fill="none" stroke="#d85656" stroke-width="2" d="M365.5,-180C365.5,-180 245.5,-180 245.5,-180 239.5,-180 233.5,-174 233.5,-168 233.5,-168 233.5,-156 233.5,-156 233.5,-150 239.5,-144 245.5,-144 245.5,-144 365.5,-144 365.5,-144 371.5,-144 377.5,-150 377.5,-156 377.5,-156 377.5,-168 377.5,-168 377.5,-174 371.5,-180 365.5,-180"/>
<text text-anchor="middle" x="305.5" y="-159.5" font-family="sans" font-size="10.00">preprocess_data_research</text>
</g>
<!-- 3&#45;&gt;5 -->
<g id="edge8" class="edge">
<title>3&#45;&gt;5</title>
<path fill="none" stroke="grey" stroke-width="2" d="M252.8,-215.7C261.36,-207.14 271.84,-196.66 281.2,-187.3"/>
<polygon fill="grey" stroke="grey" stroke-width="2" points="283.8,-189.65 288.4,-180.1 278.85,-184.7 283.8,-189.65"/>
</g>
<!-- 4 -->
<g id="node5" class="node">
<title>4</title>
<path fill="none" stroke="#d6d856" stroke-width="2" d="M346.5,-108C346.5,-108 260.5,-108 260.5,-108 254.5,-108 248.5,-102 248.5,-96 248.5,-96 248.5,-84 248.5,-84 248.5,-78 254.5,-72 260.5,-72 260.5,-72 346.5,-72 346.5,-72 352.5,-72 358.5,-78 358.5,-84 358.5,-84 358.5,-96 358.5,-96 358.5,-102 352.5,-108 346.5,-108"/>
<text text-anchor="middle" x="303.5" y="-87.5" font-family="sans" font-size="10.00">model_fit_research</text>
</g>
<!-- 4&#45;&gt;0 -->
<g id="edge2" class="edge">
<title>4&#45;&gt;0</title>
<path fill="none" stroke="grey" stroke-width="2" d="M286.94,-71.7C278.82,-63.22 268.91,-52.86 260.03,-43.58"/>
<polygon fill="grey" stroke="grey" stroke-width="2" points="262.31,-40.91 252.87,-36.1 257.26,-45.75 262.31,-40.91"/>
</g>
<!-- 5&#45;&gt;4 -->
<g id="edge7" class="edge">
<title>5&#45;&gt;4</title>
<path fill="none" stroke="grey" stroke-width="2" d="M305.01,-143.7C304.79,-135.98 304.52,-126.71 304.27,-118.11"/>
<polygon fill="grey" stroke="grey" stroke-width="2" points="307.77,-118 303.99,-108.1 300.78,-118.2 307.77,-118"/>
</g>
<!-- 7 -->
<g id="node8" class="node">
<title>7</title>
<path fill="none" stroke="#56d8d8" stroke-width="2" d="M504.5,-108C504.5,-108 388.5,-108 388.5,-108 382.5,-108 376.5,-102 376.5,-96 376.5,-96 376.5,-84 376.5,-84 376.5,-78 382.5,-72 388.5,-72 388.5,-72 504.5,-72 504.5,-72 510.5,-72 516.5,-78 516.5,-84 516.5,-84 516.5,-96 516.5,-96 516.5,-102 510.5,-108 504.5,-108"/>
<text text-anchor="middle" x="446.5" y="-87.5" font-family="sans" font-size="10.00">model_fit_large_research</text>
</g>
<!-- 5&#45;&gt;7 -->
<g id="edge10" class="edge">
<title>5&#45;&gt;7</title>
<path fill="none" stroke="grey" stroke-width="2" d="M339.99,-143.88C358.94,-134.47 382.63,-122.71 402.86,-112.67"/>
<polygon fill="grey" stroke="grey" stroke-width="2" points="404.47,-115.77 411.87,-108.19 401.36,-109.5 404.47,-115.77"/>
</g>
<!-- 6&#45;&gt;0 -->
<g id="edge3" class="edge">
<title>6&#45;&gt;0</title>
<path fill="none" stroke="grey" stroke-width="2" d="M186.06,-71.7C194.18,-63.22 204.09,-52.86 212.97,-43.58"/>
<polygon fill="grey" stroke="grey" stroke-width="2" points="215.74,-45.75 220.13,-36.1 210.69,-40.91 215.74,-45.75"/>
</g>
<!-- 7&#45;&gt;0 -->
<g id="edge4" class="edge">
<title>7&#45;&gt;0</title>
<path fill="none" stroke="grey" stroke-width="2" d="M395.4,-71.97C357.61,-59.37 307.04,-42.51 273.19,-31.23"/>
<polygon fill="grey" stroke="grey" stroke-width="2" points="274.28,-27.9 263.69,-28.06 272.07,-34.55 274.28,-27.9"/>
</g>
</g>
</svg>
